<?xml version="1.0" encoding="utf-8"?>
<!-- Generator: Adobe Illustrator 24.0.0, SVG Export Plug-In . SVG Version: 6.00 Build 0)  -->
<svg version="1.1" id="Layer_1" xmlns="http://www.w3.org/2000/svg" xmlns:xlink="http://www.w3.org/1999/xlink" x="0px" y="0px"
	 viewBox="0 0 270 141" style="enable-background:new 0 0 270 141;" xml:space="preserve">
<style type="text/css">
	.st0{fill:#E4032E;}
</style>
<g>
	<g>
		<g>
			<g>
				<g>
					<g>
						<path class="st0" d="M36.48,60.31c6.24-11.55,17.02-24.14,29.75-28.34c2.61-0.65,6.09-1.39,8.41,0.4
							c2.06,1.53,2.34,4.14,1.87,6.49c-0.61,2.78-2.52,6.31-5.71,6.75c-0.57,0-1.06-0.2-1.43-0.61c-0.83-0.81-0.77-1.98-0.59-3.05
							c0.52-2.21,2.57-4.55,4.93-4.86c0.4-0.26,0.23-0.75,0.12-1.09c-0.31-0.49-0.69-0.86-1.26-0.98c-2.55-0.3-4.48,1.3-6.44,2.65
							c-7.43,5.97-12.82,13.65-17.36,21.3c-3.7,6.88-6.85,13.99-7.77,22.02c-0.45,5.83,1.4,11.54,6.58,14.35
							c5.62,2.98,12.89,0.96,18.52-0.57l5.17-1.59l9.94-2.95c9.43-2.75,21.23-3.37,30.43,0.28c5.56,2.32,11.29,5.49,14.92,10.96
							c0,0.14,0,0.32-0.17,0.29c-7.89-2.15-18.16-4.28-25.98-0.55l-0.37-0.09c-2.37-3.8-6.38-5.91-10.48-6.73
							c-13.26-1.28-24.16,5-36.62,6.56c-6.32,0.58-13.09,0.38-17.5-4.45c-6.95-6.94-6.13-19.2-2.83-27.57
							C33.67,65.98,35,63.12,36.48,60.31z"/>
						<path class="st0" d="M54.78,64.45c3.29-6.05,8.34-13.43,15.33-15.65c1.87-0.42,3.88-0.25,5.31,0.99c3,3,1.84,8.13,0.82,11.66
							c0,0.2,0.17,0.43,0.37,0.46c2.67-0.08,4.83-1.33,6.76-3.16c4.15-4.64,8.59-10.71,15.34-9.99c1.26,0.21,2.49,0.93,3.15,2.11
							c1.71,3.39,0.03,7.15-2.3,9.75c-0.89,0.86-2.01,1.51-3.31,1.11c-0.52-0.17-0.95-0.69-1.14-1.21
							c-0.48-2.38,0.91-4.59,2.83-5.85c0.55-0.54,2.21-0.17,1.76-1.4c-0.34-0.49-0.86-0.55-1.41-0.55
							c-3.28,1.37-5.41,4.72-7.32,7.52c-2.4,3.75-4.33,7.74-5.61,11.95c-0.35,1.52-0.79,3.5,0.1,4.91c0.66,0.89,1.75,1.27,2.87,0.99
							c3.25-1.28,6.1-3.88,8.58-6.57c5.68-6.81,8.69-15.24,16.29-20.78c2.36-1.63,5.69-2.88,8.53-1.38c0.46,0.17,0.83,0.78,1.4,0.55
							c0.46-0.46,0.78-1.43,1.7-1.2c2.1,0.04,4.51-0.07,6.66,0.14l0.14,0.2l-0.61,1.46l-11.8,23.96c-0.11,0.26-0.15,0.6-0.09,0.89
							c0.2,0.34,0.63,0.32,0.95,0.2c1.7-0.97,3.02-2.77,4.21-4.29c1.04-1.43,1.96-2.92,2.71-4.5c0.32-0.46,0.69-1.03,1.32-0.94
							c0.66,0.09,1.49-0.2,1.98,0.26c-0.75,2.01-1.94,3.84-2.98,5.73c-3.2,4.93-7.39,10.65-13.28,12.12
							c-0.98,0.11-2.18,0.19-2.93-0.53c-1.15-0.86-1.2-2.24-1.51-3.48c-0.11-0.14-0.32-0.17-0.49-0.12
							c-2.51,2.26-5.1,4.52-8.63,4.08c-1.09-0.23-2.12-1.07-2.6-2.1c-0.91-1.75-0.47-4.02-0.53-5.97c-0.08-0.23-0.37-0.14-0.49-0.06
							c-3.83,3.78-7.98,7.18-13.06,8.14c-2.36,0.28-4.39-0.42-5.96-2.09c-3.8-4.98-0.79-11.51,1.21-16.36
							c0.09-0.23,0.06-0.55-0.23-0.6c-1.38,0.11-2.7,0.33-4.02,0.53l-0.46,0.52c-3.09,5.73-6.44,11.8-12,16.06
							c-2.3,1.66-5.72,2.79-8.42,1.26c-2.81-1.93-3.05-5.38-2.7-8.56C51.91,71.04,53.22,67.69,54.78,64.45z M63.56,64.16
							c-1.62,3.27-3.27,6.56-3.34,10.44c0.17,0.72,0.6,1.55,1.4,1.76c0.86,0.23,1.58-0.22,2.24-0.65c3.17-2.66,5.36-6.3,7.15-9.79
							c0.14-0.34,0.4-0.77,0.2-1.15c-1.89-0.75-3.72-2.05-5.18-3.69l-0.32-0.06c-0.29,0.06-0.4,0.34-0.6,0.54L63.56,64.16z
							 M68.5,57.52c0.11,1.72,1.71,3.22,3.23,3.8c0.37,0.12,0.97,0.41,1.29-0.05c0.58-1.09,0.93-2.29,1.22-3.5
							c0.29-1.58,0.53-3.7-0.99-4.74c-0.52-0.29-1.29-0.32-1.84-0.06C69.69,53.82,68.45,55.57,68.5,57.52z M107.38,70.89
							c-0.44,1.43-1.1,2.98-0.65,4.56c0.14,0.32,0.49,0.55,0.8,0.63c1.29,0.03,2.16-1.14,2.99-2.06c3.78-5.24,6.67-10.88,9.27-16.62
							c0.43-1.2,1.13-2.32,1.1-3.67c-0.03-0.29-0.31-0.49-0.54-0.63c-0.57-0.26-1.12,0.14-1.58,0.37
							c-5.09,3.92-7.84,9.53-10.39,14.86L107.38,70.89z"/>
						<path class="st0" d="M131.91,56.16c1.13-2.24,2.08-4.56,3.5-6.68c0.58-0.63,1.47-0.6,2.24-0.68l5.65,0.08l0.23,0.23
							c-0.95,2.26-2,4.5-3.18,6.68c-0.29,0.57-0.89,1.12-1.55,1.2c-2.3,0.05-4.74,0.18-6.92-0.02
							C131.65,56.73,131.86,56.42,131.91,56.16z"/>
						<path class="st0" d="M137.59,67.63c3.93-8.14,8.67-15.99,15.38-22.91c6.51-6.49,13.56-11.75,22.09-13.36
							c2.33-0.34,4.94-0.13,6.71,1.46c0.34,0.29,0.74,0.58,1.23,0.41c6.12-2.45,14.62-3.31,20.76-0.24
							c3.55,1.74,6.93,3.96,10.34,6.09c0.43,0.23,0.23,0.69,0,0.95c-1.96,2.17-3.6,4.41-5.36,6.67c-0.2,0.2-0.52,0.11-0.72,0
							l-9.02-6.2c-4.21-2.86-9.05-4.85-14.54-3.95c-0.6,0.31-0.32,1.06-0.41,1.64c0.12,5.63-1.87,10.53-4.59,15
							c-2.16,3.12-4.67,6.39-8.35,7.43c-1.61,0.34-3.16-0.15-4.13-1.45c-2.68-4.09-0.31-9.07,1.65-12.71
							c2.25-3.95,5.74-7.67,9.51-10.53c0.09-0.14,0.26-0.29,0.14-0.46c-0.37-0.37-1-0.15-1.46-0.06
							c-6.12,2.05-11.02,7.45-15.55,12.58c-8.07,9.93-14.19,20.71-17.68,32.55c-1.08,4.45-2.54,11.27,1.99,14.39
							c3.98,2.14,7.81-0.61,10.8-3.18c4.55-4.64,7.61-9.99,8.87-16.05c0.21-1.81,0.7-4.27-0.96-5.51c-1.49-0.67-2.73,0.56-3.74,1.59
							c-2.34,2.81-3.32,6.16-3.74,9.78c-1.04,0.86-2.27,1.4-3.37,2.23c-2.07,1.43-4.12,3.34-5.76,5.26
							c-0.2,0.06-0.23-0.17-0.29-0.29c-0.24-6.66,2.14-12.37,5.8-17.49c2.91-3.38,6.65-6.26,11.18-5.19
							c1.98,0.52,3.29,2.62,3.66,4.49c0.72,6.26-1.91,11.74-4.74,16.83c-4.56,7.16-11.76,14.4-20.89,13.53
							c-3.5-0.21-6.77-2.64-8.25-5.86c-3.45-6.87-1.06-15.71,1.25-22.36L137.59,67.63z M168.63,55.77c0.08,0.78,0.4,1.61,1.2,1.9
							c1.55,0.44,2.79-0.71,3.94-1.59c4.15-4.38,6.66-9.45,7.32-15.28c0-0.86,0.29-1.95-0.19-2.7c-0.34-0.06-0.72,0.08-1.01,0.28
							c-2.79,1.86-5.41,4.57-7.32,7.32C170.58,48.77,168.76,51.92,168.63,55.77z"/>
						<path class="st0" d="M174.45,75.25c3.32-4.38,7.73-9.16,13.3-9.51c1.41,0.03,2.64,0.61,3.5,1.79
							c2.37,3.51,0.37,8.01-0.5,11.57c-0.09,0.32,0.14,0.55,0.37,0.63c1.15,0.18,2.47,0.01,3.48-0.5l0.43-0.54
							c4-11.41,9.95-22.01,17.02-32.12c4.41-5.84,10.06-11.88,16.62-14.7c1.55-0.54,3.79-1.19,5.28-0.04
							c1.66,1.35,1.19,3.71,0.76,5.51c-0.18,1.61-1.96,1.77-3.14,2.14c-0.06-0.03-0.12,0-0.17-0.06c0.03-1.03,0.58-1.95,0.79-2.95
							c0.06-0.55,0.15-1-0.08-1.52c-0.28-0.52-0.92-0.35-1.35-0.2c-2.21,1.08-4,3.06-5.7,4.98c-6.34,7.36-10.93,15.52-15.15,23.77
							c-1.39,2.87-2.83,5.7-3.96,8.68c-0.03,0.17,0.03,0.29,0.17,0.4c0.98-0.03,1.55-1.03,2.3-1.54
							c5.59-5.06,10.11-10.87,14.3-16.77c0.89-0.43,1.93-0.42,2.96-0.51l0.2,0.06c-0.06,0.8-0.75,1.43-1.13,2.15
							c-4.67,6.73-9.98,13.17-16.43,19.03l-4.66,3.83c-0.98,0.86-1.01,2.18-1.5,3.27c-0.9,2.95-1.8,5.96-1.93,9.21
							c0.03,0.54,0.23,1.06,0.68,1.35c1.23,0.55,2.21-0.62,3.08-1.42c6.31-7.3,9.1-16.25,16.81-22.79c2.53-2,5.87-3.71,9.14-2.21
							c0.57,0.2,1,0.95,1.69,0.61c0.49-0.34,0.52-1.12,1.21-1.09c2.27-0.02,4.68-0.1,6.86,0.08c0.2,0.17,0.06,0.46,0,0.66
							l-1.56,3.15l-9.66,19.49c-0.43,0.89-1.01,1.83-0.96,2.84c0.14,0.43,0.6,0.46,0.97,0.38c1.81-1,3.14-2.66,4.32-4.35
							c1.18-1.66,2.14-3.41,3.26-5.1c0.6-0.28,1.44-0.17,2.1-0.08c0.4,0.37-0.12,0.86-0.2,1.29c-2.83,5.88-6.79,12.29-12.97,15.54
							c-1.44,0.71-3.42,1.37-5,0.5c-1.26-0.87-1.14-2.44-1.71-3.65c-0.11-0.17-0.4-0.14-0.55-0.06c-2.56,2.29-5.33,4.86-8.91,3.87
							c-2.24-1.04-2.49-3.63-2.65-5.84c-0.11-0.09-0.06-0.26-0.2-0.35l-0.29,0.11c-2.51,3.01-5.68,6.76-9.9,6.4
							c-1.61-0.12-3.01-1.68-3.49-3.11c-1.48-4.68,0.09-9.82,1.14-14.32c0-0.26-0.29-0.52-0.51-0.55l-3.53,0.05l-0.58,0.66
							c-2.6,5.1-5.46,10.03-9.95,14.29c-2.36,2.09-5.27,3.83-8.51,2.87c-2.69-1.16-3.4-4.09-3.39-6.84
							C167.52,86.74,170.64,80.87,174.45,75.25z M175.37,90.84c0.05,0.98,0.54,1.98,1.54,2.3c0.66,0.23,1.38-0.05,1.95-0.34
							c3.31-2.46,5.28-6.24,7.07-9.68c0.17-0.34,0.32-0.89-0.14-1.15c-1.72-0.87-3.38-2.22-4.75-3.75c-0.17-0.17-0.49-0.2-0.69-0.09
							c-1.24,1.66-2.05,3.5-2.92,5.33C176.45,85.8,175.38,88.09,175.37,90.84z M183.69,74.74c0.11,1.75,1.51,3.39,3.12,3.97
							c0.32,0.12,0.89,0.26,1.12-0.14c0.98-2.24,1.91-4.79,1.4-7.37c-0.2-0.6-0.71-1.21-1.34-1.41c-0.63-0.17-1.29,0.02-1.84,0.28
							C184.54,71.13,183.76,72.87,183.69,74.74z M215.34,90.06c-0.06,0.83-0.27,1.87,0.36,2.5c0.34,0.35,0.89,0.38,1.32,0.23
							c1.7-0.88,2.79-2.69,3.83-4.18c3.46-5.39,6.01-11.15,8.38-16.99c0.09-0.52,0.23-1.23-0.25-1.58c-1.4-0.67-2.5,0.88-3.54,1.62
							c-4.58,4.55-7.01,10.05-9.3,15.58L215.34,90.06z"/>
						<path class="st0" d="M222.03,47.26l3.06-3.95l0.46-0.4c8.84-0.17,15.75-5.43,21.97-11.64c-0.03,0.83-0.41,1.61-0.7,2.35
							c-4.08,9.6-13.98,18.04-24.69,18.17l-2.53-0.04c-0.46-0.12-0.14-0.57-0.03-0.8L222.03,47.26z"/>
					</g>
				</g>
			</g>
		</g>
	</g>
	<path class="st0" d="M233.18,97.94c0-1.2,0.91-2.11,2.07-2.11c1.15,0,2.05,0.91,2.05,2.11c0,1.22-0.91,2.12-2.05,2.12
		C234.09,100.06,233.18,99.16,233.18,97.94z M235.25,100.48c1.38,0,2.56-1.07,2.56-2.54c0-1.46-1.18-2.53-2.56-2.53
		c-1.4,0-2.58,1.07-2.58,2.53C232.67,99.41,233.85,100.48,235.25,100.48z M234.71,98.14h0.51l0.77,1.27h0.5l-0.83-1.29
		c0.43-0.05,0.76-0.28,0.76-0.81c0-0.58-0.34-0.83-1.03-0.83h-1.11v2.93h0.44V98.14z M234.71,97.77v-0.91h0.6
		c0.31,0,0.64,0.07,0.64,0.43c0,0.45-0.34,0.48-0.71,0.48H234.71z"/>
</g>
</svg>
