<?xml version="1.0" encoding="UTF-8"?><svg id="a" xmlns="http://www.w3.org/2000/svg" width="312.211" height="93.64" viewBox="0 0 312.211 93.64"><g><g><path d="M304.098,59.215l-11.326-16.003c-.261-.371-.673-.616-1.125-.671l-11.225-1.365,3.097-1.312c.342-.143,.568-.483,.568-.855v-5.745c0-.388-.175-.761-.47-1.014l-3.916-3.337c.121-.079,.21-.204,.232-.347l2.315-13.992c.066-.404,.101-.814,.101-1.222v-3.35c0-.38-.202-.733-.531-.926l-12.577-7.406c-.342-.202-.744-.279-1.139-.219l-18.653,2.852c-.351,.051-.608,.355-.608,.708v1.187l-19.066-3.321c-.345-.059-.682,.151-.777,.487l-1.176,4.131-9.067-4.89c-.347-.189-.753-.252-1.145-.182l-18.493,3.407c-.351,.066-.606,.371-.606,.728v3.348c0,.061,.006,.121,.006,.182l-11.333-1.507v-2.626c0-.349-.265-.641-.612-.674l-16.758-1.568c-.336-.031-.628,.221-.652,.557l-.086,1.378-6.956-5.326c-.312-.239-.708-.353-1.099-.316l-14.314,1.365c-.386,.037-.737,.246-.954,.572l-7.696,11.486c-.222,.333-.342,.724-.342,1.127v5.406c0,.38,.2,.737,.526,.937l2.439,1.483-3.859,5.142c-.241,.318-.368,.708-.368,1.108l.004,5.324c0,.39,.191,.739,.47,1.013l3.644,3.102-10.14-1.349c-.421-.057-.827,.175-.991,.564l-16.945,39.632c-.189,.436-.281,.902-.281,1.375v4.675c0,.434,.257,.827,.658,.996l19.548,8.345c.351,.151,.753-.039,.867-.402l5.327-17.388,4.682,8.415c.167,.298,.586,.336,.799,.07l6.103-7.492,1.044,17.438c.024,.379,.373,.647,.742,.57l16.706-3.453,11.515,2.178c.386,.072,.757-.186,.82-.573l1.446-8.571,6.018-.904,1.928,9.29c.081,.388,.458,.641,.847,.568l13.184-2.494,.195,1.672c.044,.395,.397,.682,.794,.647l15.823-1.428c.402-.037,.713-.373,.709-.779l-.009-4.585,4.559,6.959c.226,.345,.669,.476,1.046,.305l11.603-5.195-.072,4.144c-.006,.384,.316,.693,.698,.665l15.336-1.051c.421-.028,.768-.34,.84-.753l1.968-11.096,2.63,7.582c.147,.425,.487,.757,.915,.899l18.414,6.006c.436,.143,.913,.116,1.33-.075l17.484-7.976c.412-.187,.717-.553,.827-.991l4.804-19.005c.116-.463,.175-.937,.175-1.41v-3.578c-.004-.463-.149-.919-.417-1.299Z"/><g><path d="M280.419,33.137l-8.468-7.215,5.015-3.124c.266-.165,.45-.437,.498-.746l1.786-10.769c.046-.292-.09-.584-.345-.735l-10.322-6.079c-.276-.162-.597-.222-.91-.175l-15.347,2.35c-.096,.015-.176,.062-.246,.119l1.911,.333c.336,.057,.559,.375,.505,.711l-1.58,9.416,2.062,20.084c.029,.272,.266,.47,.538,.447l7.476-.656c.276-.024,.483-.257,.476-.535l-.298-9.677,.362-.072,6.842,10.53c.156,.239,.458,.333,.722,.221l9.247-3.914c.206-.092,.25-.368,.075-.515Zm-11.557-11.925l-5.849,.939-.301-10.203,7.167,2.532-1.016,6.731Z" fill="#fccf00"/><path d="M249.389,28.66l-11.102,1.641-.794-5.454,8.962,1.354c.195,.031,.373-.107,.401-.3l.779-5.96c.026-.189-.121-.358-.311-.36l-9.223-.138,1.4-5.127,10.236,3.097c.182,.053,.371-.062,.402-.25l1.235-7.371c.031-.197-.099-.38-.292-.415l-19.601-3.414c-.2-.033-.395,.088-.452,.285l-.733,2.584,1.191,.643c.325,.175,.507,.537,.456,.902l-1.902,12.91c-.059,.393-.246,.759-.533,1.033l-2.997,2.867,1.432,8.852c.031,.204,.206,.357,.415,.364l22.335,.792c.186,.006,.331-.16,.305-.342l-1.2-7.891c-.029-.197-.215-.333-.41-.301Z" fill="#44af35"/><path d="M228.601,11.038l-10.411-5.616c-.281-.149-.606-.202-.919-.143l-15.242,2.808c-.272,.051-.458,.305-.423,.579l.222,1.862,1.942,.259c.333,.044,.562,.355,.507,.687l-1.356,8.064,2.123,17.537c.031,.272,.276,.469,.548,.441l7.652-.77c.272-.028,.476-.266,.458-.54l-.441-7.187,7.316-.402c.316-.017,.617-.147,.847-.368l5.588-5.346c.232-.221,.38-.513,.428-.827l1.516-10.315c.048-.292-.097-.583-.357-.722Zm-9.927,10.392l-5.813,1.018-.603-9.769,7.41,2.556-.994,6.195Z" fill="#e62310"/><path d="M200.713,13.15l-11.261-1.494c-.252-.035-.476,.169-.463,.428l.678,15.038-8.891,.575,3.144-19.41c.044-.265-.145-.505-.412-.531l-11.254-1.053c-.27-.026-.504,.175-.522,.445l-.031,.515,1.251,.957c.312,.241,.516,.597,.562,.985l.07,.562c.05,.39-.061,.785-.305,1.093l-1.963,2.49-.518,8.277,.731,.481c.331,.217,.568,.551,.663,.935l.114,.448c.099,.386,.064,.796-.096,1.16l-1.863,4.223-.026,.382c-.02,.311,.105,.614,.336,.82l6.465,5.811c.235,.211,.538,.333,.855,.342l14.172,.362c.312,.007,.612-.125,.818-.357l4.986-5.688c.211-.241,.353-.538,.406-.855l2.758-16.394c.046-.265-.136-.515-.406-.549Z" fill="#fccf00"/><path d="M156.591,10.164l8.72,5.98c.226,.156,.538,.108,.708-.107l4.249-5.39c.169-.213,.127-.522-.086-.685l-8.973-6.875c-.25-.193-.568-.285-.882-.254l-12.186,1.161c-.311,.031-.588,.2-.763,.456l-6.493,9.686c-.147,.222-.081,.526,.147,.665l15.848,9.652-3.242,4.407-8.444-7.11c-.202-.173-.511-.136-.669,.075l-4.936,6.577c-.165,.222-.13,.533,.079,.713l8.689,7.389c.241,.206,.551,.316,.867,.311l14.417-.254c.298-.006,.568-.184,.689-.458l4.949-11.206c.116-.261,.026-.564-.211-.722l-14.999-9.874,2.523-4.138Z" fill="#009bd9"/><path d="M300.665,59.989l-9.795-13.842c-.211-.298-.538-.493-.902-.537l-19.088-2.323c-.353-.044-.704,.101-.924,.38l-8.42,10.644-2.365,13.384,3.986,11.493c.116,.34,.388,.606,.731,.717l15.949,5.201c.347,.114,.73,.092,1.064-.059l15.176-6.921c.327-.151,.572-.443,.662-.792l4.122-16.322c.086-.353,.017-.73-.195-1.024Zm-22.411,11.473l-6.404-6.777,4.607-7.913,8.54,2.292,1.059,8.523-7.801,3.876Z" fill="#44af35"/><path d="M259.289,45.039l-14.575-3.486c-.29-.07-.568,.142-.579,.437l-1.24,32.588,1.794,1.49c.342,.285,.516,.728,.456,1.165l-.235,1.678c-.061,.439-.345,.82-.752,1l-1.496,.669-.09,2.365c-.009,.307,.246,.553,.551,.535l9.479-.651c.336-.024,.614-.272,.673-.601l6.472-36.491c.055-.316-.143-.623-.458-.698Z" fill="#009bd9"/><path d="M240.98,77.212l-11.247-9.33,7.139-4.168c.316-.182,.537-.494,.603-.851l2.49-12.954c.066-.336-.09-.678-.386-.853l-14.494-8.464c-.318-.187-.696-.257-1.059-.197l-20.483,3.317c-.316,.051-.537,.342-.498,.66l2.847,24.522,4.954,14.224,7.195-.649c.32-.029,.559-.303,.548-.623l-.448-12.693,.478-.097,9.176,14.005c.18,.276,.537,.379,.834,.244l12.268-5.493c.243-.108,.285-.432,.083-.601Zm-15.582-16.028l-7.487,1.744-.432-12.061,8.876,2.398-.957,7.919Z" fill="#fccf00"/><path d="M206.424,80.29l-12.425-35.688c-.116-.327-.412-.564-.759-.599l-17.008-1.746c-.327-.031-.634,.175-.728,.493l-5.61,19.364,4.166,20.65,3.626,.687c.311,.059,.606-.147,.658-.458l1.31-7.766,11.386-1.711,1.931,9.312c.064,.312,.368,.515,.678,.454l12.399-2.343c.296-.055,.472-.362,.375-.649Zm-25.04-15.323l1.852-10.993,3.806,.301,2.284,10.975-7.943-.283Z" fill="#44af35"/><path d="M162.959,44.194c-.066-.334-.342-.594-.678-.638l-9.326-1.259c-.34-.046-.673,.127-.832,.43l-6.184,11.967-4.256-12.686c-.11-.331-.402-.573-.748-.617l-8.635-1.149c-.333-.044-.662,.142-.794,.45l-15.201,35.576c-.127,.289,.009,.625,.298,.752l13.897,5.93c.281,.121,.603-.029,.693-.322l6.548-21.365,6.131,11.017c.13,.239,.463,.268,.638,.055l8.43-10.35,1.325,22.155c.018,.301,.298,.516,.594,.456l15.056-3.111c.311-.064,.507-.368,.447-.676l-7.399-36.616Z" fill="#e62310"/></g></g><g><polygon points="302.914 83.923 304.627 83.923 304.627 88.345 305.358 88.345 305.358 83.923 307.071 83.923 307.071 83.192 302.914 83.192 302.914 83.923"/><polygon points="311.48 83.192 309.914 86.525 308.346 83.192 307.617 83.192 307.617 88.345 308.346 88.345 308.346 84.94 308.385 84.94 309.607 87.494 309.732 87.494 310.094 87.494 310.219 87.494 311.443 84.94 311.48 84.94 311.48 88.345 312.211 88.345 312.211 83.192 311.48 83.192"/></g></g><g id="b"><path id="c" d="M.622,1.912V93.018H91.743V1.912H.622Z" fill="#fff"/><path id="d" d="M.622,1.912V93.018H91.743V1.912H.622ZM85.685,39.788c-.145,2.834-1.055,6.361-1.85,8.732-3.209,9.513-6.925,15.425-15.527,15.425-2.53,0-7.026-.679-8.674-5.19l-.405-1.055-.694,.882c-2.639,3.383-6.682,5.37-10.973,5.392-3.282,.014-5.927-1.084-7.619-3.18l-.477-.578-.492,.549c-1.822,2.024-5.002,3.18-8.717,3.18-2.648,.106-5.219-.907-7.084-2.79l-.434-.492-.477,.477c-1.85,1.85-4.742,2.79-8.385,2.703-4.438-.101-7.127-2.573-7.214-6.607-.145-6.216,5.884-19.3,8.385-23.275,1.337-2.494,3.966-4.02,6.795-3.947,2.024,0,3.397,.419,4.207,1.287,.752,.781,.896,1.446,.954,3.05l.087,2.067,1.099-1.749c2.646-4.265,7.012-4.843,11.363-4.843,3.007,0,5.638,1.099,6.693,2.819l.39,.636,.578-.477c2.52-1.997,5.663-3.041,8.876-2.949,3.802,0,6.578,.94,8.226,2.819,.376,.419,.622,.723,.969,1.446l.434,.882,.622-.752c2.438-2.874,6.065-4.463,9.831-4.308,3.238,0,5.696,.867,7.315,2.559,2.024,2.14,2.313,5.132,2.197,7.272v.014Z" fill="#ffed00"/><path id="e" d="M.622,1.912V93.018H91.743V1.912H.622ZM88.244,43.272c-.419,3.325-2.66,9.469-3.846,11.912-3.18,6.592-7.46,11.638-15.686,11.638-4.395,0-8.009-1.388-10.12-4.091-3.048,2.689-6.98,4.161-11.045,4.135-3.18,0-5.985-.911-8.125-2.602-2.691,1.768-5.859,2.671-9.079,2.588-2.743,.057-5.435-.752-7.691-2.313-2.654,1.622-5.743,2.389-8.848,2.197-5.884-.145-9.961-3.874-10.076-9.296-.145-7.199,5.927-20.384,8.775-24.938,1.906-3.387,5.511-5.461,9.397-5.407,4.337,0,5.927,1.243,6.693,2.819,3.354-2.834,7.792-3.007,10.958-3.007,3.47,0,5.667,.925,7.532,2.414,2.74-1.607,5.874-2.418,9.05-2.342,4.482,0,7.821,1.041,10.149,3.34,2.812-2.247,6.334-3.416,9.932-3.296,5.031,0,8.342,1.822,10.279,4.525,2.747,3.817,2.255,7.662,1.749,11.724Z" fill="#e3000b"/><path id="f" d="M0,1.29V93.64H92.35V1.29H0Zm91.078,1.272V92.368H1.272V2.562H91.078Z"/><path id="g" d="M87.796,29.004v-.636h.434c.304,0,.477,.116,.477,.318,0,.159-.101,.318-.434,.318h-.477Zm1.532,1.301l-.26-.463c-.231-.405-.289-.463-.492-.535,.39-.058,.622-.304,.622-.651,0-.361-.231-.636-.723-.636h-1.157v2.284h.477v-.94h.087c.202,0,.289,.029,.376,.116,.101,.101,.231,.289,.318,.448l.188,.376h.564Zm-1.128-2.935c.982-.004,1.781,.789,1.785,1.771,.004,.982-.789,1.781-1.771,1.785h0c-.982,0-1.777-.798-1.777-1.78,0-.981,.796-1.776,1.777-1.777h-.014Zm0-.434c-1.222,0-2.212,.989-2.213,2.211s.989,2.212,2.211,2.213h.003c1.222,0,2.211-.992,2.211-2.213,0-1.221-.99-2.21-2.211-2.211Zm-12.042,2.371c-3.951-.151-7.752,1.523-10.308,4.539-.262-.584-.619-1.122-1.055-1.59-1.836-2.067-4.771-3.036-8.717-3.036-3.846,0-7.055,1.2-9.281,3.094-1.157-1.879-3.932-3.123-7.257-3.123-4.337,0-9.079,.622-11.898,5.147-.058-1.634-.217-2.501-1.128-3.47-1.113-1.171-2.92-1.489-4.67-1.489-3.054-.082-5.894,1.561-7.344,4.25-2.515,4.005-8.616,17.218-8.472,23.622,.087,4.135,2.862,7.113,7.821,7.228,3.874,.101,6.925-.94,8.862-2.891,1.983,2.015,4.722,3.101,7.546,2.993,3.542,0,7.084-1.07,9.18-3.383,1.778,2.169,4.554,3.441,8.125,3.426,4.482-.028,8.706-2.105,11.464-5.638,1.475,4.005,5.204,5.595,9.281,5.595,8.934,0,12.867-6.144,16.134-15.859,.723-2.183,1.72-5.841,1.879-8.905,.26-5.103-1.894-10.51-10.163-10.51h0ZM16.726,53.739c4.626-.81,5.783,.867,5.638,2.4-.434,4.626-4.684,5.667-8.385,5.58-2.66-.058-5.074-1.287-5.147-4.395-.116-5.436,5.436-18.013,8.038-22.177,1.214-1.981,2.675-2.964,5.016-2.964,2.226,0,2.776,1.157,2.747,2.515-.087,3.629-5.971,14.703-7.908,19.025v.014Zm15.049-4.279c-.518,1.443-.967,2.909-1.344,4.395,1.493-.432,3.044-.632,4.597-.593,2.212,.058,3.643,.969,3.643,2.805,0,4.453-4.915,5.754-8.342,5.768-3.744,0-7.04-2.14-7.04-6.231,0-4.814,2.602-12.1,5.06-16.943,2.993-5.971,6.072-6.751,11.349-6.751,2.313,0,4.988,.983,4.988,3.18,0,3.036-2.573,4.192-5.118,4.337-1.099,.072-2.776,.13-3.773,.058,0,0-.853,1.301-1.749,3.6,4.727-.665,6.722,.405,5.927,3.137-1.084,3.686-4.279,3.932-8.197,3.238h0Zm23.246-11.493c-1.287,0-2.111,.81-2.747,1.677-1.359,1.937-4.337,9.643-4.8,12.809-.304,2.169,.622,2.602,1.648,2.602,1.648,0,3.484-1.735,4.12-4.597,0,0-3.137-.072-2.27-2.848,.838-2.689,2.429-3.267,5.06-3.383,5.19-.217,4.67,3.614,4.265,5.667-1.359,6.636-6.072,11.956-12.751,11.956-4.568,0-7.416-2.53-7.416-7.185,0-3.325,1.648-8.529,2.964-11.594,2.776-6.506,5.696-11.031,13.112-11.031,4.467,0,7.98,1.59,7.46,5.783-.376,3.05-1.908,4.857-4.698,5.06-.781,.072-3.961,0-2.906-3.036,.376-1.055,.52-1.879-1.041-1.879h0Zm28.046,5.494c-.781,3.903-2.544,8.529-4.467,11.97-3.123,5.638-6.925,6.419-10.25,6.375-3.311-.043-7.055-1.258-7.084-6.375-.014-3.672,1.576-8.862,2.92-12.259,2.342-6.173,4.742-11.19,12.317-11.103,8.819,.101,7.257,7.951,6.563,11.377v.014Zm-6.303-3.86c-.087,2.356-3.542,11.797-4.771,13.878-.535,.896-1.128,1.648-2.212,1.648-.94,0-1.373-.679-1.402-1.446-.058-2.125,3.846-12.794,5.19-14.529,.578-.925,1.243-1.07,2.009-1.055,1.113,0,1.214,.81,1.185,1.504Z"/></g></svg>